HIERARCHY
ROOT joint_Root
{
	OFFSET 0.0 0.0 0.0
	CHANNELS 6 Xposition Yposition Zposition Zrotation Xrotation Yrotation 
	JOINT Hips
	{
		OFFSET -17.1583 93.1646 452.98
		CHANNELS 6 Xposition Yposition Zposition Zrotation Xrotation Yrotation 
		JOINT Spine
		{
			OFFSET 15.7357 0.0 0.0
			CHANNELS 6 Xposition Yposition Zposition Zrotation Xrotation Yrotation 
			JOINT Chest
			{
				OFFSET 8.98455 -0.406207 0.0
				CHANNELS 6 Xposition Yposition Zposition Zrotation Xrotation Yrotation 
				JOINT Neck
				{
					OFFSET 16.3773 0.0 0.0
					CHANNELS 6 Xposition Yposition Zposition Zrotation Xrotation Yrotation 
					JOINT Head
					{
						OFFSET 6.45672 0.0 0.0
						CHANNELS 6 Xposition Yposition Zposition Zrotation Xrotation Yrotation 
						End Site
						{
							OFFSET 0.0 0.0 0.0
						}
					}
				}
				JOINT Shoulder_L
				{
					OFFSET 12.9942 -0.242716 4.98039
					CHANNELS 6 Xposition Yposition Zposition Zrotation Xrotation Yrotation 
					JOINT UpperArm_L
					{
						OFFSET 5.34809 0.0 0.0
						CHANNELS 6 Xposition Yposition Zposition Zrotation Xrotation Yrotation 
						JOINT LowerArm_L
						{
							OFFSET 24.3286 1.87007e-05 0.0
							CHANNELS 6 Xposition Yposition Zposition Zrotation Xrotation Yrotation 
							JOINT Hand_L
							{
								OFFSET 22.2916 0.0 0.0
								CHANNELS 6 Xposition Yposition Zposition Zrotation Xrotation Yrotation 
								End Site
								{
									OFFSET 0.0 0.0 0.0
								}
							}
						}
					}
				}
				JOINT Shoulder_R
				{
					OFFSET 12.9945 -0.242716 -4.98039
					CHANNELS 6 Xposition Yposition Zposition Zrotation Xrotation Yrotation 
					JOINT UpperArm_R
					{
						OFFSET -5.34813 0.0 0.0
						CHANNELS 6 Xposition Yposition Zposition Zrotation Xrotation Yrotation 
						JOINT LowerArm_R
						{
							OFFSET -24.3289 0.000322201 0.0
							CHANNELS 6 Xposition Yposition Zposition Zrotation Xrotation Yrotation 
							JOINT Hand_R
							{
								OFFSET -22.2915 -0.000108084 0.0
								CHANNELS 6 Xposition Yposition Zposition Zrotation Xrotation Yrotation 
								End Site
								{
									OFFSET 0.0 0.0 0.0
								}
							}
						}
					}
				}
			}
		}
		JOINT UpperLeg_L
		{
			OFFSET -2.19248 -6.46944 0.0
			CHANNELS 6 Xposition Yposition Zposition Zrotation Xrotation Yrotation 
			JOINT LowerLeg_L
			{
				OFFSET 39.0811 0.0 -1.23785e-05
				CHANNELS 6 Xposition Yposition Zposition Zrotation Xrotation Yrotation 
				JOINT Foot_L
				{
					OFFSET 40.9854 0.0 -1.26872e-05
					CHANNELS 6 Xposition Yposition Zposition Zrotation Xrotation Yrotation 
					JOINT Toes_L
					{
						OFFSET 11.7543 0.0 0.0
						CHANNELS 6 Xposition Yposition Zposition Zrotation Xrotation Yrotation 
						End Site
						{
							OFFSET 0.0 0.0 0.0
						}
					}
				}
			}
		}
		JOINT UpperLeg_R
		{
			OFFSET -2.19251 6.46944 0.0
			CHANNELS 6 Xposition Yposition Zposition Zrotation Xrotation Yrotation 
			JOINT LowerLeg_R
			{
				OFFSET -39.0811 -0.00228153 -0.0401928
				CHANNELS 6 Xposition Yposition Zposition Zrotation Xrotation Yrotation 
				JOINT Foot_R
				{
					OFFSET -40.9854 0.0 0.0
					CHANNELS 6 Xposition Yposition Zposition Zrotation Xrotation Yrotation 
					JOINT Toes_R
					{
						OFFSET -11.7543 0.0 0.0
						CHANNELS 6 Xposition Yposition Zposition Zrotation Xrotation Yrotation 
						End Site
						{
							OFFSET 0.0 0.0 0.0
						}
					}
				}
			}
		}
	}
}
MOTION
Frames:	6
Frame Time:	0.0333333
0.000000 0.000000 0.000000 0.000000 0.000000 -0.000000 0.684661 92.326500 4.088430 86.519200 -6.085190 5.544470 15.735700 0.000005 -0.000001 107.109000 86.753000 -114.009000 8.984550 -0.406207 -0.000000 -1.374010 2.458750 -13.769400 16.377300 -0.000001 -0.000001 1.290240 0.164320 -6.741530 6.456720 -0.000001 -0.000000 2.699140 3.057860 -15.892100 12.994200 -0.242716 4.980390 -92.908800 9.341680 -72.618400 5.348090 -0.000007 -0.000001 -55.362800 -1.465990 4.217990 24.328600 0.000019 0.000005 12.476900 25.744900 -26.994800 22.291600 -0.000001 0.000005 2.204210 4.869220 9.986380 12.994500 -0.242716 -4.980390 93.680100 -7.400440 -63.464500 -5.348130 -0.000001 -0.000004 -27.714900 -58.682800 -71.632700 -24.328900 0.000322 -0.000009 0.144685 0.954762 -8.678240 -22.291500 -0.000108 -0.000004 44.839700 5.494510 -6.314050 -2.192480 -6.469440 -0.000000 -172.854000 -7.911190 5.600040 39.081100 -0.000007 -0.000012 0.038258 -0.109640 19.236000 40.985400 -0.000006 -0.000013 0.705789 8.616440 -72.041500 11.754300 -0.000000 0.000003 -0.002860 0.206642 -8.192020 -2.192510 6.469440 -0.000001 176.192000 5.528940 -172.706000 -39.081100 -0.002282 -0.040193 -0.026892 0.129321 13.155100 -40.985400 0.000008 0.000006 -9.394890 12.158700 -68.061100 -11.754300 -0.000006 -0.000006 -0.010717 0.276586 -5.334920
0.000000 0.000000 0.000000 0.000000 0.000000 -0.000000 0.648246 92.349400 4.048750 86.574400 -5.922920 5.400080 15.735700 0.000005 -0.000001 107.452000 86.773100 -114.316000 8.984550 -0.406207 -0.000000 -1.423700 2.483850 -13.695300 16.377300 -0.000001 -0.000001 1.379520 0.136171 -6.651580 6.456720 -0.000001 -0.000000 2.763810 3.021190 -15.863300 12.994200 -0.242716 4.980390 -92.919600 9.331390 -72.539600 5.348090 -0.000007 -0.000001 -55.304100 -1.561510 4.355580 24.328600 0.000019 0.000005 12.444400 25.756000 -26.923200 22.291600 -0.000001 0.000005 2.305670 4.867330 10.023400 12.994500 -0.242716 -4.980390 93.683900 -7.386890 -63.399000 -5.348130 -0.000001 -0.000004 -27.778300 -58.732200 -71.543300 -24.328900 0.000322 -0.000009 0.096482 0.667541 -8.311630 -22.291500 -0.000108 -0.000004 44.676900 5.489130 -6.101910 -2.192480 -6.469440 -0.000000 -172.884000 -7.940690 5.465570 39.081100 -0.000007 -0.000012 0.035525 -0.102644 19.091100 40.985400 -0.000006 -0.000013 0.694252 8.773730 -71.970500 11.754300 -0.000000 0.000003 -0.003125 0.209640 -8.069990 -2.192510 6.469440 -0.000001 176.158000 5.689200 -172.799000 -39.081100 -0.002282 -0.040193 -0.026190 0.127591 13.028700 -40.985400 0.000008 0.000006 -9.407590 12.165800 -67.976300 -11.754300 -0.000006 -0.000006 -0.010547 0.275344 -5.385760
0.000000 0.000000 0.000000 0.000000 0.000000 -0.000000 0.620082 92.364700 4.004390 86.619700 -5.753010 5.272840 15.735700 0.000005 -0.000001 107.626000 86.794700 -114.467000 8.984550 -0.406207 -0.000000 -1.471090 2.490480 -13.646800 16.377300 -0.000001 -0.000001 1.443480 0.116228 -6.589910 6.456720 -0.000001 -0.000000 2.803300 3.013430 -15.751800 12.994200 -0.242716 4.980390 -92.922100 9.305010 -72.479700 5.348090 -0.000007 -0.000001 -55.270600 -1.777230 4.472270 24.328600 0.000019 0.000005 12.350900 25.790200 -26.715000 22.291600 -0.000001 0.000005 2.227290 4.867550 10.019100 12.994500 -0.242716 -4.980390 93.674200 -7.363830 -63.388000 -5.348130 -0.000001 -0.000004 -28.082900 -58.839100 -71.610700 -24.328900 0.000322 -0.000009 0.055913 0.404056 -8.021930 -22.291500 -0.000108 -0.000004 44.656800 5.484080 -5.905680 -2.192480 -6.469440 -0.000000 -172.919000 -7.915890 5.304310 39.081100 -0.000007 -0.000012 0.034748 -0.100780 19.023600 40.985400 -0.000006 -0.000013 0.687270 8.899000 -71.930000 11.754300 -0.000000 0.000003 -0.003061 0.208922 -8.099210 -2.192510 6.469440 -0.000001 176.138000 5.859630 -172.935000 -39.081100 -0.002282 -0.040193 -0.025319 0.123941 13.017100 -40.985400 0.000008 0.000006 -9.453450 12.160100 -67.934500 -11.754300 -0.000006 -0.000006 -0.010535 0.275260 -5.389210
0.000000 0.000000 0.000000 0.000000 0.000000 -0.000000 0.567663 92.385500 3.962020 86.624200 -5.586560 5.156880 15.735700 0.000005 -0.000001 107.494000 86.816300 -114.300000 8.984550 -0.406207 -0.000000 -1.510650 2.462940 -13.577800 16.377300 -0.000001 -0.000001 1.478480 0.100994 -6.546940 6.456720 -0.000001 -0.000000 2.826450 2.991750 -15.726200 12.994200 -0.242716 4.980390 -92.921500 9.293910 -72.463200 5.348090 -0.000007 -0.000001 -55.247100 -1.920970 4.714630 24.328600 0.000019 0.000005 12.368900 25.842400 -26.706400 22.291600 -0.000001 0.000005 2.265330 4.863850 10.091500 12.994500 -0.242716 -4.980390 93.700200 -7.402380 -63.345200 -5.348130 -0.000001 -0.000004 -28.268200 -58.876900 -71.681500 -24.328900 0.000322 -0.000009 0.011269 0.093337 -7.511770 -22.291500 -0.000108 -0.000004 44.771000 5.483330 -5.876630 -2.192480 -6.469440 -0.000000 -172.927000 -7.777340 5.186790 39.081100 -0.000007 -0.000012 0.033777 -0.098604 18.909100 40.985400 -0.000006 -0.000013 0.640777 8.895390 -71.833200 11.754300 -0.000000 0.000003 -0.002777 0.205685 -8.230960 -2.192510 6.469440 -0.000001 176.176000 5.948460 -172.970000 -39.081100 -0.002282 -0.040193 -0.025345 0.125795 12.843000 -40.985400 0.000008 0.000006 -9.455050 12.084300 -67.846000 -11.754300 -0.000006 -0.000006 -0.010348 0.273886 -5.445420
0.000000 0.000000 0.000000 0.000000 0.000000 -0.000000 0.525130 92.393400 3.923930 86.671200 -5.487090 5.094010 15.735700 0.000005 -0.000001 107.402000 86.824200 -114.196000 8.984550 -0.406207 -0.000000 -1.524030 2.448310 -13.553500 16.377300 -0.000001 -0.000001 1.438410 0.086050 -6.531100 6.456720 -0.000001 -0.000000 2.922840 2.974420 -15.680500 12.994200 -0.242716 4.980390 -92.911100 9.256250 -72.455800 5.348090 -0.000007 -0.000001 -55.254200 -2.065890 4.933710 24.328600 0.000019 0.000005 12.429400 25.984300 -26.704900 22.291600 -0.000001 0.000005 2.183890 4.861110 10.144900 12.994500 -0.242716 -4.980390 93.709800 -7.419080 -63.336800 -5.348130 -0.000001 -0.000004 -28.397700 -58.927300 -71.709500 -24.328900 0.000322 -0.000009 -0.019713 -0.148313 -7.176680 -22.291500 -0.000108 -0.000004 44.651200 5.475930 -5.593610 -2.192480 -6.469440 -0.000000 -172.922000 -7.805620 5.093970 39.081100 -0.000007 -0.000012 0.030832 -0.090234 18.865100 40.985400 -0.000006 -0.000013 0.625886 9.058550 -71.783700 11.754300 -0.000000 0.000003 -0.002984 0.208057 -8.134430 -2.192510 6.469440 -0.000001 176.184000 6.032360 -173.091000 -39.081100 -0.002282 -0.040193 -0.024004 0.119131 12.924200 -40.985400 0.000008 0.000006 -9.305880 12.056500 -67.904100 -11.754300 -0.000006 -0.000006 -0.010457 0.274685 -5.412710
0.000000 0.000000 0.000000 0.000000 0.000000 -0.000000 0.471080 92.410800 3.900680 86.647200 -5.419410 5.012790 15.735700 0.000005 -0.000001 107.546000 86.841800 -114.311000 8.984550 -0.406207 -0.000000 -1.563030 2.452890 -13.494100 16.377300 -0.000001 -0.000001 1.458820 0.054815 -6.570420 6.456720 -0.000001 -0.000000 2.896270 2.914280 -15.624300 12.994200 -0.242716 4.980390 -92.906500 9.223380 -72.423700 5.348090 -0.000007 -0.000001 -55.286700 -2.199740 5.133630 24.328600 0.000019 0.000005 12.383100 25.945200 -26.648700 22.291600 -0.000001 0.000005 2.114050 4.862770 10.112500 12.994500 -0.242716 -4.980390 93.712400 -7.415430 -63.309800 -5.348130 -0.000001 -0.000004 -28.868600 -58.995100 -72.006800 -24.328900 0.000322 -0.000009 -0.043847 -0.346105 -7.050780 -22.291500 -0.000108 -0.000004 44.609700 5.473240 -5.491930 -2.192480 -6.469440 -0.000000 -172.860000 -7.833810 5.037910 39.081100 -0.000007 -0.000012 0.029735 -0.087491 18.771000 40.985400 -0.000006 -0.000013 0.591507 9.139070 -71.733100 11.754300 -0.000000 0.000003 -0.002867 0.206715 -8.189040 -2.192510 6.469440 -0.000001 176.261000 6.010450 -173.105000 -39.081100 -0.002282 -0.040193 -0.024328 0.122059 12.769300 -40.985400 0.000008 0.000006 -9.393650 11.943000 -67.799200 -11.754300 -0.000006 -0.000006 -0.010454 0.274665 -5.413520
